<?xml version="1.0" ?><!DOCTYPE svg  PUBLIC '-//W3C//DTD SVG 1.1//EN'  'http://www.w3.org/Graphics/SVG/1.1/DTD/svg11.dtd'><svg enable-background="new 0 0 512 512" height="512px" id="Layer_1" version="1.1" viewBox="0 0 512 512" width="512px" xml:space="preserve" xmlns="http://www.w3.org/2000/svg" xmlns:xlink="http://www.w3.org/1999/xlink"><g><path clip-rule="evenodd" d="M267.945,81.35c61.993,0,110.083,56.553,96.473,119.456   c-13.007-3.324-27.221-3.93-40.831-1.206c-5.75-18.75-15.122-35.083-27.212-48.088c-26.92-28.122-66.533-38.71-104.335-33.57   C209.274,95.565,236.797,81.35,267.945,81.35L267.945,81.35z M209.274,129.741c51.714,0,88.005,28.123,102.22,73.184   c-29.033,10.583-48.996,35.689-53.235,67.146c-75.603-4.843-101.001-85.593-75.301-137.309   C191.435,130.644,200.204,129.741,209.274,129.741L209.274,129.741z M160.579,174.198c0.906,58.369,36.292,104.64,96.774,108.565   c0,24.506,10.591,48.386,29.033,65.022c-26.304,44.754-65.626,81.951-105.542,82.869c-2.115,0.292-5.447,0-6.655-1.523   c-5.749-8.768,17.245-10.584,31.449-36.592c6.05-11.189,2.729-22.67-13.6-25.696C69.553,343.548,64.711,178.732,166.932,137.6   C163.006,149.092,160.579,161.193,160.579,174.198L160.579,174.198z M0,25.706v460.891C0,500.519,11.486,512,25.701,512h460.89   c13.912,0,25.409-11.48,25.409-25.403V25.706C512,11.491,500.503,0,486.591,0H25.701C11.486,0,0,11.491,0,25.706L0,25.706z    M314.816,215.324l2.719,43.856c-14.817,6.945-29.938,9.681-46.569,10.891C275.204,243.755,292.137,224.096,314.816,215.324   L314.816,215.324z M270.059,282.762c11.799,0.605,35.084-4.843,45.361-8.767c-4.237,20.561-12.401,42.332-22.68,62.309   C278.826,322.381,270.059,303.323,270.059,282.762L270.059,282.762z M326.918,212c4.528-0.908,9.371-1.513,14.215-1.513   c6.956,0,13.601,0.908,19.649,2.719c-5.747,15.729-16.026,28.732-29.939,38.408C331.447,238.614,329.636,224.399,326.918,212   L326.918,212z M371.676,214.719c14.517,6.352,25.097,15.124,33.865,28.431c17.849,28.133,15.725,71.362-8.466,94.95   c-23.286,23.003-65.93,28.43-95.869,7.869c14.818-24.484,24.19-53.834,29.637-81.658   C350.504,253.429,364.115,235.588,371.676,214.719L371.676,214.719z" fill="#040404" fill-rule="evenodd"/></g></svg>