<?xml version="1.0" encoding="iso-8859-1"?>
<!-- Generator: Adobe Illustrator 16.0.0, SVG Export Plug-In . SVG Version: 6.00 Build 0)  -->
<!DOCTYPE svg PUBLIC "-//W3C//DTD SVG 1.1//EN" "http://www.w3.org/Graphics/SVG/1.1/DTD/svg11.dtd">
<svg version="1.1" id="Capa_1" xmlns="http://www.w3.org/2000/svg" xmlns:xlink="http://www.w3.org/1999/xlink" x="0px" y="0px"
	 width="418.982px" height="418.982px" viewBox="0 0 418.982 418.982" style="enable-background:new 0 0 418.982 418.982;"
	 xml:space="preserve">
<g>
	<g>
		<path d="M364.942,106.749l-102.559-103c-3.951-3.951-7.85-3.747-7.85-3.747H89.749c-21.78,0-39.5,17.72-39.5,39.5v339.98
			c0,21.78,17.72,39.5,39.5,39.5h239.484c21.78,0,39.5-17.72,39.5-39.5c0,0,0-259.002,0-262.887S367.583,109.398,364.942,106.749z
			 M266.17,44.368l58.307,58.557h-48.9c-5.186,0-9.405-4.22-9.405-9.406L266.17,44.368L266.17,44.368z M339.733,379.482
			c0,5.79-4.711,10.5-10.5,10.5H89.749c-5.79,0-10.5-4.71-10.5-10.5V39.502c0-5.79,4.71-10.5,10.5-10.5H240.19v64.517
			c0,19.512,15.875,35.385,35.385,35.385h64.158V379.482L339.733,379.482z"/>
		<path d="M113.323,242.158c0,5.521,4.478,10,10,10h172.335c5.522,0,10-4.479,10-10c0-5.522-4.478-10-10-10H123.323
			C117.801,232.158,113.323,236.636,113.323,242.158z"/>
		<path d="M295.658,282.158H123.323c-5.522,0-10,4.478-10,10c0,5.521,4.478,10,10,10h172.335c5.522,0,10-4.479,10-10
			C305.658,286.636,301.181,282.158,295.658,282.158z"/>
		<path d="M295.658,332.158H123.323c-5.522,0-10,4.478-10,10c0,5.521,4.478,10,10,10h172.335c5.522,0,10-4.479,10-10
			C305.658,336.636,301.181,332.158,295.658,332.158z"/>
		<path d="M119.566,202.153h117.039c10.907,0-9.206-47.896-9.206-47.896c-1.186-2.85-4.045-4.534-6.797-5.8l-18.508-8.52l-8.892-7.5
			l-14.099,14.021l6.294,42.079c0.022,0.148-0.016,0.3-0.104,0.421l-6.748,9.235c-0.107,0.147-0.279,0.234-0.461,0.234
			c-0.183,0-0.354-0.087-0.462-0.234l-6.747-9.235c-0.088-0.121-0.126-0.272-0.104-0.421l6.294-42.08l-14.1-14.02l-8.89,7.5
			l-18.509,8.52c-2.74,1.127-5.34,2.484-6.798,5.8C128.771,154.257,108.658,202.153,119.566,202.153z"/>
		<path d="M178.084,132.167c18.934,0,33.056-17.635,33.378-47.21c0.205-20.523-9.563-32.804-33.378-32.804
			c-23.81,0-33.58,12.28-33.374,32.804C145.032,114.532,159.153,132.167,178.084,132.167z"/>
	</g>
</g>
<g>
</g>
<g>
</g>
<g>
</g>
<g>
</g>
<g>
</g>
<g>
</g>
<g>
</g>
<g>
</g>
<g>
</g>
<g>
</g>
<g>
</g>
<g>
</g>
<g>
</g>
<g>
</g>
<g>
</g>
</svg>
